<svg width="200" height="206.1300971447184" viewBox="0 0 200 206.1300971447184">
    <defs>
        <linearGradient id="gradient">
            <stop id="SvgjsStop12440" stop-color="#d427d2" offset="0"></stop>
            <stop id="SvgjsStop12446" stop-color="#44def2" offset="1"></stop>
        </linearGradient>
    </defs>
    <g id="group1" transform="matrix(1.0499999999999998,0,0,1.0499999999999998,48,-18.27199029922485)"
        fill="url(#gradient)">
        <path xmlns="http://www.w3.org/2000/svg"
            d="M70.79,38.18l5.458-9.459l-14.893-8.599c-9.7-5.599-22.125-2.279-27.729,7.43l3.25,1.877  c2.583-4.484,8.317-6.02,12.804-3.432l4.867,2.808l-11.725,20.31L41.2,48.181L26.199,74.158c-1.552,2.691-0.634,6.133,2.057,7.684  c2.697,1.558,6.136,0.633,7.688-2.061l14.995-25.976l-1.617-0.937l11.724-20.31L70.79,38.18z">
        </path>
        <path xmlns="http://www.w3.org/2000/svg"
            d="M20.633,63.435c-0.473,0-0.95-0.12-1.384-0.369L1.389,52.754C0.527,52.257,0,51.34,0,50.347s0.527-1.91,1.389-2.406  l17.86-10.311c1.324-0.767,3.023-0.312,3.792,1.017c0.771,1.329,0.315,3.027-1.015,3.794L8.333,50.347l13.693,7.906  c1.33,0.765,1.785,2.463,1.015,3.792C22.526,62.938,21.592,63.435,20.633,63.435z">
        </path>
        <path xmlns="http://www.w3.org/2000/svg"
            d="M79.361,66.212c-0.959,0-1.893-0.497-2.408-1.389c-0.765-1.329-0.31-3.028,1.02-3.792l13.694-7.906L77.973,45.22  c-1.329-0.768-1.784-2.466-1.02-3.794c0.771-1.329,2.468-1.784,3.797-1.017l17.861,10.311c0.857,0.497,1.389,1.414,1.389,2.406  s-0.531,1.91-1.389,2.405L80.75,65.843C80.312,66.093,79.834,66.212,79.361,66.212z">
        </path>
    </g>
    <g id="group2"
        transform="matrix(2.767017202237224,0,0,2.767017202237224,-0.000002638833238827919,54.90647943335595)"
        fill="url(#gradient)">
        <path
            d="M19.76 30.64 l1.8 -3.12 l5.44 9.36 l3.6 0 c-0.8 -1.28 -8.4 -14.28 -9.04 -15.56 l-7.84 13.6 l-2.92 5.08 l-10.8 0 c0.6 -1 4.64 -8.04 8.52 -14.8 c2.28 -3.96 4.8 -8.4 7.64 -13.24 l3.6 0 l-7.44 12.88 l-6.92 12.04 l3.6 0 c4.92 -8.68 8 -13.8 12.56 -21.8 c0.28 0.48 14.36 24.88 14.44 24.92 l-10.8 0 z M65.08 27.560000000000002 c-15.88 0 -16.12 -0.04 -16.32 -0.04 l-0.08 0 c-4 -0.32 -7.08 -3.72 -7.08 -7.76 c0 -4.32 3.48 -7.8 7.8 -7.8 l16.8 0 c3.36 0 6.08 2.72 6.08 6.12 l0 3.24 l-22.76 0 l-0.04 0 l-0.04 0 c-0.92 -0.04 -1.52 -0.72 -1.52 -1.56 s0.64 -1.52 1.48 -1.56 l19.76 0 l0 -0.08 c0 -1.72 -1.32 -3.04 -3.04 -3.04 l-16.72 0 c-2.56 0 -4.68 2.08 -4.68 4.68 c0 2.4 1.8 4.32 4.08 4.64 c15.96 0 16.12 0.04 16.4 0.04 c4 0.32 7.08 3.76 7.08 7.76 c0 4.32 -3.48 7.8 -7.76 7.8 l-16.84 0 c-3.36 0 -6.08 -2.72 -6.08 -6.08 l0 -3.28 l22.92 0 c1.96 0.12 1.96 3 0 3.12 l-19.8 0 l0 0.08 c0 1.72 1.32 3.04 3.04 3.04 l16.76 0 c2.52 0 4.68 -2 4.68 -4.68 c0 -2.4 -1.8 -4.32 -4.12 -4.64 z">
        </path>
    </g>

    <g id="group3" transform="matrix(1.1764607677817487,0,0,1.1764607677817487,-1.1878110803554334,180.23833888195117)"
        fill="url(#gradient)">
        <path
            d="M2.84 19.84 c0.06 0.02 0.24 0.02 0.42 0.02 c0.4 0 0.52 -1.44 0.56 -1.74 c0.02 -0.24 0.08 -0.26 0.28 -0.3 c1 -0.12 1.5 -0.04 2.5 -0.02 c0.22 0 0.34 0.1 0.4 0.28 l0.14 0.46 c0.12 0.34 0.22 0.76 0.34 1.1 c0.08 0.24 0.1 0.22 0.34 0.22 c0.32 0 1.48 0 1.82 -0.02 c0.46 0 0.14 -0.94 0.08 -1.1 c-0.18 -0.56 -0.22 -1.14 -0.4 -1.7 c-0.08 -0.24 -2.36 -11.06 -2.46 -11.66 c-0.14 -0.36 -0.02 -0.38 -0.34 -0.38 c-0.68 0 -1.4 0.04 -2.1 0 c-0.28 0 -0.26 0.08 -0.3 0.38 c-0.04 0.28 -0.76 3.46 -1.04 4.78 c-0.36 1.66 -0.68 3.26 -1.08 4.9 c-0.14 0.58 -1.1 4.76 -0.98 4.78 c0.06 0.04 0.16 0.02 0.24 0.02 c0.5 0 0.96 0 1.58 -0.02 z M5.46 15.3 l-0.42 0 c-0.56 0 -0.58 0 -0.44 -0.58 c0.1 -0.44 0.64 -2.82 0.76 -3.4 c0.02 -0.04 0.06 -0.08 0.08 -0.08 c0.04 0 0.08 0.04 0.1 0.06 c0.08 0.24 0.16 0.84 0.24 1.08 c0.18 0.76 0.3 1.4 0.48 2.22 c0.18 0.72 0.1 0.72 -0.26 0.72 c-0.18 0 -0.36 -0.02 -0.54 -0.02 z M16.586000000000002 18.5 c0 -0.52 0 -3.8 0.02 -4.06 c0.02 -0.06 0.06 -0.18 0.14 -0.18 s0.12 0.04 0.14 0.1 c0.8 1.56 1.5 3.12 2.22 4.64 c0.1 0.22 0.32 0.86 0.38 0.92 c0.08 0.12 0.22 0.08 0.34 0.08 l2.2 0.02 c0.26 0 0.32 -0.16 0.26 -0.38 c-0.16 -0.6 -1.3 -2.72 -1.56 -3.24 c-0.18 -0.4 -1.38 -2.72 -1.42 -2.9 c-0.04 -0.08 0.26 -0.22 0.3 -0.28 c0.96 -0.86 1.82 -1.74 2 -3.08 c0.2 -1.32 -0.1 -2.76 -0.96 -3.82 c-0.66 -0.78 -1.52 -1.24 -2.54 -1.3 c-0.62 -0.04 -1.22 0.02 -1.84 0 c-0.54 -0.02 -0.92 -0.02 -1.6 -0.02 c-0.32 0 -0.52 0.18 -0.54 0.52 l0 0.24 c-0.04 1.54 0 3.08 0.02 4.6 c0 2.32 -0.04 8.44 -0.04 9.32 c0 0.26 0.04 0.32 0.28 0.32 c0.14 0 0.3 0.02 0.44 0.02 c0.56 0 0.9 -0.02 1.48 -0.02 c0.44 0 0.28 -0.72 0.28 -1.5 z M16.586000000000002 10.7 l0.02 -2.02 c0.02 -0.3 -0.08 -0.9 0.2 -1.12 c0.38 -0.28 1.16 0 1.5 0.24 c1 0.68 0.92 2.36 0.38 3.3 c-0.26 0.44 -0.7 0.7 -1.2 0.84 c-0.3 0.08 -0.86 0.18 -0.88 -0.3 c0 -0.32 -0.02 -0.94 -0.02 -0.94 z M28.372000000000003 19.84 c0.06 0.02 0.24 0.02 0.42 0.02 c0.4 0 0.52 -1.44 0.56 -1.74 c0.02 -0.24 0.08 -0.26 0.28 -0.3 c1 -0.12 1.5 -0.04 2.5 -0.02 c0.22 0 0.34 0.1 0.4 0.28 l0.14 0.46 c0.12 0.34 0.22 0.76 0.34 1.1 c0.08 0.24 0.1 0.22 0.34 0.22 c0.32 0 1.48 0 1.82 -0.02 c0.46 0 0.14 -0.94 0.08 -1.1 c-0.18 -0.56 -0.22 -1.14 -0.4 -1.7 c-0.08 -0.24 -2.36 -11.06 -2.46 -11.66 c-0.14 -0.36 -0.02 -0.38 -0.34 -0.38 c-0.68 0 -1.4 0.04 -2.1 0 c-0.28 0 -0.26 0.08 -0.3 0.38 c-0.04 0.28 -0.76 3.46 -1.04 4.78 c-0.36 1.66 -0.68 3.26 -1.08 4.9 c-0.14 0.58 -1.1 4.76 -0.98 4.78 c0.06 0.04 0.16 0.02 0.24 0.02 c0.5 0 0.96 0 1.58 -0.02 z M30.992000000000004 15.3 l-0.42 0 c-0.56 0 -0.58 0 -0.44 -0.58 c0.1 -0.44 0.64 -2.82 0.76 -3.4 c0.02 -0.04 0.06 -0.08 0.08 -0.08 c0.04 0 0.08 0.04 0.1 0.06 c0.08 0.24 0.16 0.84 0.24 1.08 c0.18 0.76 0.3 1.4 0.48 2.22 c0.18 0.72 0.1 0.72 -0.26 0.72 c-0.18 0 -0.36 -0.02 -0.54 -0.02 z M42.538000000000004 5.02 c-0.2 0 -0.4 0.02 -0.6 0.02 c-0.3 0 -0.66 -0.06 -0.72 0.34 c-0.2 1.7 -0.38 3.58 -0.58 5.28 c-0.34 2.8 -0.66 5.68 -0.98 8.48 c-0.04 0.38 -0.08 0.74 0.34 0.82 c0.64 0.04 1.12 0.04 1.66 0.02 c0.2 0.02 0.42 0.04 0.48 -0.2 c0.04 -0.1 0.04 -0.2 0.04 -0.3 c0.04 -0.46 0.64 -6.22 0.88 -6.22 c0.38 0 1.38 4.68 1.86 6.4 c0.06 0.24 0.18 0.34 0.42 0.32 c0.5 -0.04 0.98 0 1.48 0 s0.4 -0.32 0.5 -0.74 c0.12 -0.46 1.28 -6 1.56 -6 c0.32 0 0.98 6.42 1.04 6.56 c0.12 0.28 0.46 0.16 0.7 0.16 c0.36 0 0.7 0.04 1.16 0 c0.34 -0.04 0.68 0.08 0.7 -0.36 c0 -0.1 -0.04 -0.2 -0.06 -0.3 c-0.08 -0.5 -0.18 -1.1 -0.28 -1.6 c-0.14 -1.04 -0.34 -2.06 -0.48 -3.1 c-0.2 -1.64 -0.4 -3.28 -0.58 -4.92 c-0.14 -1.4 -0.34 -2.98 -0.46 -4.38 c-0.04 -0.46 -0.56 -0.3 -0.88 -0.3 l-1.38 0 c-0.22 0 -0.32 0.42 -0.36 0.64 c-0.12 0.56 -1.5 7.78 -1.96 7.78 s-1.94 -6.6 -2.2 -8.04 c-0.06 -0.32 -0.28 -0.42 -0.58 -0.42 z M68.01 4.9 c-0.38 0.02 -0.76 0.08 -1.14 0.2 c-0.82 0.28 -1.56 0.84 -2.06 1.56 c-0.44 0.66 -0.62 1.44 -0.68 2.22 c-0.04 0.6 0.02 1.22 0.3 1.76 c0.3 0.58 0.82 1.08 1.26 1.56 c0.4 0.42 0.8 0.84 1.24 1.22 c0.4 0.38 0.86 0.68 1.26 1.08 c0.58 0.58 0.8 1.9 0.38 2.62 c-0.5 0.8 -1.68 0.92 -2.46 0.66 c-0.4 -0.14 -0.76 -0.44 -1.1 -0.68 c-0.2 -0.14 -0.44 -0.2 -0.58 0.04 c-0.08 0.12 -0.12 0.26 -0.16 0.38 c-0.14 0.5 -0.32 0.96 -0.34 1.5 c-0.02 0.62 1.16 0.8 1.6 0.9 c1.96 0.46 4.32 0.1 5.34 -1.84 c0.2 -0.4 0.34 -0.82 0.42 -1.26 c0.02 -0.16 0.04 -0.3 0.04 -0.46 c0.08 -1.28 -0.44 -2.36 -1.22 -3.32 c-0.84 -1.04 -1.9 -1.76 -2.88 -2.66 c-0.6 -0.56 -0.82 -1.44 -0.64 -2.24 c0.18 -0.86 1.16 -1.08 1.9 -0.86 c0.22 0.06 0.4 0.16 0.6 0.28 c0.12 0.06 0.24 0.14 0.4 0.14 c0.28 0.02 0.32 -0.2 0.38 -0.42 c0.14 -0.5 0.38 -0.9 0.48 -1.38 c0.1 -0.54 -0.34 -0.64 -0.78 -0.78 c-0.52 -0.14 -1.02 -0.24 -1.56 -0.22 z M75.55600000000001 8.28 c0 2.02 0.02 4.06 0.06 6.06 c0.02 1.22 0 2.6 0.58 3.72 c0.74 1.44 2.38 2.08 3.96 1.98 c1.08 -0.08 2.08 -0.36 2.86 -1.16 c1.32 -1.42 1.06 -3.64 1.08 -5.46 c0.04 -2.62 0.1 -5.06 0.1 -7.7 c0 -0.44 -0.14 -0.68 -0.58 -0.7 c-0.54 -0.02 -1.08 0 -1.62 0.04 c-0.22 0 -0.4 0.2 -0.4 0.44 c0.02 1.92 0.06 3.86 0.04 5.8 c-0.02 1.66 0.2 3.5 -0.42 5.08 c-0.24 0.58 -0.78 1.02 -1.42 1.02 c-1.6 -0.04 -1.54 -1.94 -1.6 -3.06 c-0.12 -2.44 0.06 -4.94 0.12 -7.38 c0 -0.46 0 -0.92 0.02 -1.38 c0.02 -0.24 0.06 -0.54 -0.26 -0.56 l-0.36 0 c-0.5 0.04 -1 -0.02 -1.5 0 c-0.48 0.04 -0.64 0.18 -0.64 0.66 c0 0.86 -0.02 1.74 -0.02 2.6 z M97.72200000000001 18.9 c0.26 0.32 1.4 1.5 1.48 1.8 c0.04 0.16 -0.14 0.32 -0.24 0.42 c-0.3 0.3 -0.44 0.36 -0.82 0.7 c-0.44 0.4 -0.56 0.08 -0.84 -0.2 s-1.5 -1.9 -1.64 -1.9 c-0.42 0.16 -0.86 0.28 -1.32 0.32 c-0.14 0 -0.26 0 -0.38 0.02 c-0.14 -0.02 -0.26 -0.02 -0.4 -0.02 c-0.98 -0.1 -1.82 -0.48 -2.62 -1.06 c-1.08 -0.74 -1.68 -1.88 -2.04 -3.14 c-0.28 -1.06 -0.48 -2.12 -0.48 -3.22 c0 -1.32 0.1 -2.66 0.52 -3.9 c0.76 -2.14 2.8 -3.66 5.02 -3.72 c2.22 0.06 4.26 1.58 5 3.72 c0.42 1.24 0.52 2.58 0.52 3.9 c0 1.1 -0.18 2.16 -0.48 3.22 c-0.28 1 -0.72 1.9 -1.4 2.62 c-0.18 0.16 0.08 0.38 0.12 0.44 z M93.96200000000002 17.62 c0.48 0 0.98 -0.16 1.42 -0.4 c1.04 -0.56 1.44 -2.04 1.64 -3.14 c0.2 -1.22 0.12 -2.48 -0.12 -3.68 c-0.24 -1.1 -0.7 -2.18 -1.64 -2.84 c-0.16 -0.12 -0.34 -0.22 -0.52 -0.3 c-0.26 -0.1 -0.52 -0.14 -0.78 -0.14 s-0.54 0.04 -0.8 0.14 c-0.18 0.08 -0.36 0.18 -0.52 0.3 c-0.94 0.66 -1.4 1.74 -1.64 2.84 c-0.24 1.2 -0.32 2.46 -0.12 3.68 c0.2 1.1 0.6 2.58 1.64 3.14 c0.44 0.24 0.94 0.4 1.44 0.4 z M106.46800000000002 14.84 c-0.06 -2.28 -0.04 -4.7 -0.02 -6.96 c0 -0.7 -0.04 -1.46 -0.04 -2.16 c0 -0.76 -0.3 -0.72 -0.7 -0.74 c-0.58 -0.02 -0.84 -0.02 -1.42 -0.02 c-0.38 -0.02 -0.54 0.08 -0.54 0.46 c0 1.96 -0.06 7.5 -0.04 8.3 s0.1 4.44 0.06 5.24 c-0.02 0.28 0 0.56 0.02 0.84 c0.02 0.1 0.08 0.2 0.24 0.2 c0.66 -0.04 1.28 -0.04 1.94 -0.06 c0.24 -0.02 0.44 -0.08 0.54 -0.34 c0.02 -0.14 -0.04 -3.8 -0.04 -4.76 z M112.57400000000001 19.84 c0.06 0.02 0.24 0.02 0.42 0.02 c0.4 0 0.52 -1.44 0.56 -1.74 c0.02 -0.24 0.08 -0.26 0.28 -0.3 c1 -0.12 1.5 -0.04 2.5 -0.02 c0.22 0 0.34 0.1 0.4 0.28 l0.14 0.46 c0.12 0.34 0.22 0.76 0.34 1.1 c0.08 0.24 0.1 0.22 0.34 0.22 c0.32 0 1.48 0 1.82 -0.02 c0.46 0 0.14 -0.94 0.08 -1.1 c-0.18 -0.56 -0.22 -1.14 -0.4 -1.7 c-0.08 -0.24 -2.36 -11.06 -2.46 -11.66 c-0.14 -0.36 -0.02 -0.38 -0.34 -0.38 c-0.68 0 -1.4 0.04 -2.1 0 c-0.28 0 -0.26 0.08 -0.3 0.38 c-0.04 0.28 -0.76 3.46 -1.04 4.78 c-0.36 1.66 -0.68 3.26 -1.08 4.9 c-0.14 0.58 -1.1 4.76 -0.98 4.78 c0.06 0.04 0.16 0.02 0.24 0.02 c0.5 0 0.96 0 1.58 -0.02 z M115.194 15.3 l-0.42 0 c-0.56 0 -0.58 0 -0.44 -0.58 c0.1 -0.44 0.64 -2.82 0.76 -3.4 c0.02 -0.04 0.06 -0.08 0.08 -0.08 c0.04 0 0.08 0.04 0.1 0.06 c0.08 0.24 0.16 0.84 0.24 1.08 c0.18 0.76 0.3 1.4 0.48 2.22 c0.18 0.72 0.1 0.72 -0.26 0.72 c-0.18 0 -0.36 -0.02 -0.54 -0.02 z M127.92 4.9 c-0.38 0.02 -0.76 0.08 -1.14 0.2 c-0.82 0.28 -1.56 0.84 -2.06 1.56 c-0.44 0.66 -0.62 1.44 -0.68 2.22 c-0.04 0.6 0.02 1.22 0.3 1.76 c0.3 0.58 0.82 1.08 1.26 1.56 c0.4 0.42 0.8 0.84 1.24 1.22 c0.4 0.38 0.86 0.68 1.26 1.08 c0.58 0.58 0.8 1.9 0.38 2.62 c-0.5 0.8 -1.68 0.92 -2.46 0.66 c-0.4 -0.14 -0.76 -0.44 -1.1 -0.68 c-0.2 -0.14 -0.44 -0.2 -0.58 0.04 c-0.08 0.12 -0.12 0.26 -0.16 0.38 c-0.14 0.5 -0.32 0.96 -0.34 1.5 c-0.02 0.62 1.16 0.8 1.6 0.9 c1.96 0.46 4.32 0.1 5.34 -1.84 c0.2 -0.4 0.34 -0.82 0.42 -1.26 c0.02 -0.16 0.04 -0.3 0.04 -0.46 c0.08 -1.28 -0.44 -2.36 -1.22 -3.32 c-0.84 -1.04 -1.9 -1.76 -2.88 -2.66 c-0.6 -0.56 -0.82 -1.44 -0.64 -2.24 c0.18 -0.86 1.16 -1.08 1.9 -0.86 c0.22 0.06 0.4 0.16 0.6 0.28 c0.12 0.06 0.24 0.14 0.4 0.14 c0.28 0.02 0.32 -0.2 0.38 -0.42 c0.14 -0.5 0.38 -0.9 0.48 -1.38 c0.1 -0.54 -0.34 -0.64 -0.78 -0.78 c-0.52 -0.14 -1.02 -0.24 -1.56 -0.22 z M139.086 13.879999999999999 l0.02 5.84 c0 0.22 0.2 0.3 0.36 0.3 l1.84 0 c0.34 0 0.34 -0.3 0.34 -0.44 c0 -1.88 0 -3.9 0.08 -5.8 c0 -0.32 0.04 -0.62 0.2 -0.92 c0.18 -0.3 2.84 -6.24 3.14 -7.22 c0.04 -0.14 0.12 -0.38 -0.02 -0.5 c-0.24 -0.22 -1.2 -0.12 -1.78 -0.12 c-0.36 0 -0.58 0.14 -0.74 0.5 c-0.68 1.58 -1.38 3.14 -2.08 4.72 c-0.06 0.14 -0.14 0.14 -0.24 0 c-0.22 -0.36 -1.64 -3.88 -1.86 -4.66 c-0.04 -0.1 -0.06 -0.2 -0.12 -0.28 c-0.28 -0.32 -0.74 -0.28 -1.12 -0.28 c-0.5 0 -0.86 0.02 -1.34 0.02 c-0.32 0 -0.34 0.3 -0.28 0.56 c0.02 0.1 0.08 0.2 0.12 0.28 c0.76 1.44 2.9 6.2 3.28 7.1 c0.2 0.42 0.18 0.44 0.2 0.9 z M151.192 19.84 c0.06 0.02 0.24 0.02 0.42 0.02 c0.4 0 0.52 -1.44 0.56 -1.74 c0.02 -0.24 0.08 -0.26 0.28 -0.3 c1 -0.12 1.5 -0.04 2.5 -0.02 c0.22 0 0.34 0.1 0.4 0.28 l0.14 0.46 c0.12 0.34 0.22 0.76 0.34 1.1 c0.08 0.24 0.1 0.22 0.34 0.22 c0.32 0 1.48 0 1.82 -0.02 c0.46 0 0.14 -0.94 0.08 -1.1 c-0.18 -0.56 -0.22 -1.14 -0.4 -1.7 c-0.08 -0.24 -2.36 -11.06 -2.46 -11.66 c-0.14 -0.36 -0.02 -0.38 -0.34 -0.38 c-0.68 0 -1.4 0.04 -2.1 0 c-0.28 0 -0.26 0.08 -0.3 0.38 c-0.04 0.28 -0.76 3.46 -1.04 4.78 c-0.36 1.66 -0.68 3.26 -1.08 4.9 c-0.14 0.58 -1.1 4.76 -0.98 4.78 c0.06 0.04 0.16 0.02 0.24 0.02 c0.5 0 0.96 0 1.58 -0.02 z M153.812 15.3 l-0.42 0 c-0.56 0 -0.58 0 -0.44 -0.58 c0.1 -0.44 0.64 -2.82 0.76 -3.4 c0.02 -0.04 0.06 -0.08 0.08 -0.08 c0.04 0 0.08 0.04 0.1 0.06 c0.08 0.24 0.16 0.84 0.24 1.08 c0.18 0.76 0.3 1.4 0.48 2.22 c0.18 0.72 0.1 0.72 -0.26 0.72 c-0.18 0 -0.36 -0.02 -0.54 -0.02 z M170.978 5.460000000000001 c0.06 0.28 0.02 13.6 0.02 13.94 c0 0.6 -0.22 0.58 -0.62 0.58 c-0.6 0 -1.44 0.1 -1.62 -0.1 c-0.16 -0.14 -3.12 -7.28 -3.54 -8.18 c-0.04 -0.08 -0.14 -0.28 -0.22 -0.24 c-0.1 0.04 -0.06 0.18 -0.06 0.26 c-0.02 0.7 0.1 6.74 0.1 7.7 c0 0.48 -0.02 0.56 -0.42 0.56 l-1 0 c-0.26 0 -0.58 -0.02 -0.84 0.02 c-0.2 0 -0.3 -0.06 -0.32 -0.26 l0 -1.58 c0.04 -1.68 0 -11.64 0 -12.38 c0 -0.64 0.18 -0.76 0.82 -0.76 c0.44 -0.02 0.88 -0.02 1.32 -0.02 c0.14 0 0.22 0.02 0.3 0.2 c0.54 1.26 2.84 7.04 3.2 7.74 c0.06 0.14 0.28 0.7 0.4 0.76 l0.02 0 c0.08 -0.08 0.06 -0.48 0.06 -0.6 c0 -0.3 -0.16 -7.32 -0.16 -7.46 c0 -0.2 -0.06 -0.38 0.04 -0.52 c0.06 -0.08 0.32 -0.1 0.42 -0.12 c0.56 -0.04 1.22 0.02 1.78 0 c0.28 0 0.26 0.2 0.32 0.46 z">
        </path>
    </g>
</svg>